# xmcd
#
# Track frame offsets:
#	150
#	21650
#	34592
#	46646
#	64043
#	84024
#	97739
#	118016
#	134138
#	151808
#	173086
#	185919
#
# Disc length: 2690 seconds
#
# Revision: 0
# Processed by: cddbd v1.5.1PL0 Copyright (c) Steve Scherf et al.
# Submitted via: dBpowerAMP V4.0
#
DISCID=940a800c
DTITLE=Varios - Canción Social
DYEAR=1900
DGENRE=Latin
TTITLE0=Alberto Plazas - Yo Te seguiré
TTITLE1=Pablo Milanés - Yo No Te Pido
TTITLE2=Mercedes Sosa - Como La Cigarra
TTITLE3=Alberto Cortéz - Callejero
TTITLE4=Iván y Lucía - Alba
TTITLE5=Ana Y Jaime - Café y Petróleo
TTITLE6=Alejandro Lerner - A Todo Pulmón
TTITLE7=Sui Generis - Canción Para Mí Muerte
TTITLE8=Víctor Heredia - Todavía Cantamos
TTITLE9=Miguel Ríos - Himno de la Alegría
TTITLE10=Facundo Cabral - No Quiero Ser Un Ciudadano
TTITLE11=Horacio Guaraní - Memorías de Una Vieja Canción
EXTD=
EXTT0=
EXTT1=
EXTT2=
EXTT3=
EXTT4=
EXTT5=
EXTT6=
EXTT7=
EXTT8=
EXTT9=
EXTT10=
EXTT11=
PLAYORDER=
